# xmcd CD database file
#
# Track frame offsets:
#	150
#	25921
#	51123
#	76295
#	100188
#	121859
#	157078
#	175226
#	190399
#	212707
#	238099
#
# Disc length: 3388 seconds
#
# Revision: 0
# Processed by: cddbd v1.5.1PL2 Copyright (c) Steve Scherf et al.
# Submitted via: CDex 1.51
#
DISCID=900d3a0b
DTITLE=Olivier Louvel - Snoo
DYEAR=2005
DGENRE=Jazz
TTITLE0=Luminor
TTITLE1=One of us
TTITLE2=Olympic white
TTITLE3=On high
TTITLE4=Samilia
TTITLE5=Darling
TTITLE6=Snoo
TTITLE7=Frukt
TTITLE8=Tomorrow knows
TTITLE9=Tranhumance
TTITLE10=Compassion
EXTD=YEAR: 2005
EXTT0=
EXTT1=
EXTT2=
EXTT3=
EXTT4=
EXTT5=
EXTT6=
EXTT7=
EXTT8=
EXTT9=
EXTT10=
PLAYORDER=
